<svg width="84" height="84" viewBox="0 0 84 84" fill="none" xmlns="http://www.w3.org/2000/svg">
<path d="M36.75 57.75C36.0538 57.75 35.3861 58.0266 34.8938 58.5188C34.4016 59.0111 34.125 59.6788 34.125 60.375V65.625C34.125 66.3212 34.4016 66.9889 34.8938 67.4812C35.3861 67.9734 36.0538 68.25 36.75 68.25C37.4462 68.25 38.1139 67.9734 38.6062 67.4812C39.0984 66.9889 39.375 66.3212 39.375 65.625V60.375C39.375 59.6788 39.0984 59.0111 38.6062 58.5188C38.1139 58.0266 37.4462 57.75 36.75 57.75ZM26.25 57.75C25.5538 57.75 24.8861 58.0266 24.3938 58.5188C23.9016 59.0111 23.625 59.6788 23.625 60.375V65.625C23.625 66.3212 23.9016 66.9889 24.3938 67.4812C24.8861 67.9734 25.5538 68.25 26.25 68.25C26.9462 68.25 27.6139 67.9734 28.1062 67.4812C28.5984 66.9889 28.875 66.3212 28.875 65.625V60.375C28.875 59.6788 28.5984 59.0111 28.1062 58.5188C27.6139 58.0266 26.9462 57.75 26.25 57.75ZM47.25 57.75C46.5538 57.75 45.8861 58.0266 45.3938 58.5188C44.9016 59.0111 44.625 59.6788 44.625 60.375V65.625C44.625 66.3212 44.9016 66.9889 45.3938 67.4812C45.8861 67.9734 46.5538 68.25 47.25 68.25C47.9462 68.25 48.6139 67.9734 49.1062 67.4812C49.5984 66.9889 49.875 66.3212 49.875 65.625V60.375C49.875 59.6788 49.5984 59.0111 49.1062 58.5188C48.6139 58.0266 47.9462 57.75 47.25 57.75ZM57.75 57.75C57.0538 57.75 56.3861 58.0266 55.8938 58.5188C55.4016 59.0111 55.125 59.6788 55.125 60.375V65.625C55.125 66.3212 55.4016 66.9889 55.8938 67.4812C56.3861 67.9734 57.0538 68.25 57.75 68.25C58.4462 68.25 59.1139 67.9734 59.6062 67.4812C60.0984 66.9889 60.375 66.3212 60.375 65.625V60.375C60.375 59.6788 60.0984 59.0111 59.6062 58.5188C59.1139 58.0266 58.4462 57.75 57.75 57.75ZM73.5 21H10.5C9.10761 21 7.77226 21.5531 6.78769 22.5377C5.80312 23.5223 5.25 24.8576 5.25 26.25V49.875C5.25 51.2674 5.80312 52.6027 6.78769 53.5873C7.77226 54.5719 9.10761 55.125 10.5 55.125H73.5C74.8924 55.125 76.2277 54.5719 77.2123 53.5873C78.1969 52.6027 78.75 51.2674 78.75 49.875V26.25C78.75 24.8576 78.1969 23.5223 77.2123 22.5377C76.2277 21.5531 74.8924 21 73.5 21ZM65.625 47.25H18.375C17.6788 47.25 17.0111 46.9734 16.5188 46.4812C16.0266 45.9889 15.75 45.3212 15.75 44.625C15.75 43.9288 16.0266 43.2611 16.5188 42.7688C17.0111 42.2766 17.6788 42 18.375 42H65.625C66.3212 42 66.9889 42.2766 67.4812 42.7688C67.9734 43.2611 68.25 43.9288 68.25 44.625C68.25 45.3212 67.9734 45.9889 67.4812 46.4812C66.9889 46.9734 66.3212 47.25 65.625 47.25Z" fill="current"/>
</svg>
