<svg width="84" height="84" viewBox="0 0 84 84" fill="none" xmlns="http://www.w3.org/2000/svg">
<path d="M66.1513 19.2499C65.4506 17.1496 63.5263 15.75 61.2499 15.75H22.7501C20.4737 15.75 18.5494 17.1496 17.8487 19.2499L10.5 38.5001V64.7501C10.5 66.6743 12.0757 68.25 13.9999 68.25H17.5001C19.4243 68.25 21 66.6743 21 64.7501V63H63V64.7501C63 66.6743 64.5757 68.25 66.4999 68.25H70.0001C71.9243 68.25 73.5 66.6743 73.5 64.7501V38.5001L66.1513 19.2499ZM22.7501 52.5C19.7764 52.5 17.5001 50.2253 17.5001 47.25C17.5001 44.2747 19.7764 42 22.7501 42C25.7237 42 28.0001 44.2749 28.0001 47.25C28.0001 50.2251 25.7237 52.5 22.7501 52.5ZM61.2499 52.5C58.2763 52.5 55.9999 50.2253 55.9999 47.25C55.9999 44.2747 58.2763 42 61.2499 42C64.2236 42 66.4999 44.2749 66.4999 47.25C66.4999 50.2251 64.2236 52.5 61.2499 52.5ZM17.5001 34.9999L22.7501 21H61.2499L66.4999 34.9999H17.5001Z" fill="current"/>
</svg>
