<svg width="100" height="100" viewBox="0 0 100 100" fill="none" xmlns="http://www.w3.org/2000/svg">
<path d="M77.2386 48.1126L76.69 36.9464C76.6476 36.0888 76.603 35.206 76.3886 34.3948C76.2708 33.9582 76.1046 33.5392 75.9404 33.118C75.7762 32.7008 75.614 32.2836 75.4904 31.8548C75.2548 31.0358 75.0964 29.848 75.6758 28.8416L76.5334 29.336C76.1258 30.041 76.2592 30.947 76.4406 31.5804C76.5564 31.9822 76.709 32.3684 76.8598 32.7568C77.0394 33.2126 77.2172 33.6666 77.3426 34.1398C77.586 35.0514 77.6324 35.9882 77.6786 36.8922L78.2271 48.0624L77.2386 48.1126Z" fill="current"/>
<path d="M2.68838 63.9038C2.58078 68.2734 5.87157 66.4754 80.0326 68.7732C84.0204 68.1572 86.6696 65.9526 86.6696 65.9526C88.2572 64.835 86.133 63.56 86.133 63.56L86.1278 63.1872C86.116 62.3484 86.0564 61.5338 85.9256 60.7432C85.633 58.6734 85.0064 56.6782 84.0712 54.8506C81.6578 50.0378 77.2488 46.2784 71.675 44.7496C68.3832 43.8176 65.9616 43.5022 65.9616 43.5022L49.9656 34.3844C40.2128 28.87 24.994 31.907 22.2396 31.7712C22.0396 31.8036 5.25118 34.5226 6.31378 34.3506C4.38278 34.8674 8.39538 37.7 8.39538 37.7C7.23478 38.5554 6.31658 39.617 5.58978 40.676C4.09038 42.9576 3.43518 45.6934 3.40198 48.397C3.40858 48.863 3.41518 49.329 3.37358 49.7724C3.25238 53.0364 2.80978 55.5828 2.80978 55.5828L2.81018 55.6062C1.07338 58.031 2.68838 63.9038 2.68838 63.9038Z" fill="current"/>
<path d="M2.68818 63.9038C2.58058 68.2734 5.87138 66.4754 80.0324 68.7732C84.0202 68.1572 86.6694 65.9526 86.6694 65.9526C88.257 64.835 86.1328 63.56 86.1328 63.56L86.1276 63.1872C86.1158 62.3484 86.0562 61.5338 85.9254 60.7432L2.18638 57.1996C1.60318 59.9578 2.68818 63.9038 2.68818 63.9038Z" fill="current"/>
<path d="M13.9532 39.3294C15.1094 40.8504 17.7874 41.8212 22.5356 42.6428C23.352 42.7994 24.2418 42.931 25.1812 43.0618C29.4482 43.755 35.6564 44.396 39.119 44.786L38.9824 33.4018C32.297 32.414 9.60424 33.5438 13.9532 39.3294ZM40.7 44.9556C40.9016 44.9768 58.5794 46.8302 57.4504 46.712L65.6774 47.5804C65.5294 47.5824 62.971 44.6162 58.4352 41.3654L57.6378 40.8C57.0648 40.3998 56.467 40 55.82 39.6008C54.924 39.0368 53.9292 38.4744 52.9106 37.9606C50.7974 36.8136 48.4392 35.766 45.862 34.9616C44.5962 34.5242 42.7356 34.023 40.5642 33.6436L40.7 44.9556Z" fill="current"/>
<path d="M80.1953 57.0906L80.5425 59.1946C80.7051 60.1196 81.5361 60.7986 82.5067 60.7848L85.9227 60.7364C85.6319 58.668 85.0063 56.6768 84.0655 54.854C83.7497 54.939 79.6933 54.2644 80.1953 57.0906Z" fill="current"/>
<path d="M2.80273 55.6058C4.66333 55.1432 7.76254 53.8266 10.2683 50.155C10.4695 49.8614 10.3329 49.445 9.97674 49.341C8.64493 48.9054 5.64773 48.2026 3.39113 49.707C3.39133 49.7252 3.37293 49.7436 3.37313 49.7618C3.25153 53.036 2.82093 55.5874 2.82093 55.5874C2.82093 55.5874 2.82153 55.6056 2.80273 55.6058Z" fill="current"/>
<path d="M29.2347 33.1796L31.7309 43.9536C32.5465 44.0622 33.4357 44.1456 34.3253 44.2532L31.7745 33.1196C30.9609 33.1312 30.1223 33.143 29.2347 33.1796ZM52.9107 37.9606L54.8563 46.4364L57.4505 46.712L55.8203 39.601C54.9241 39.037 53.9293 38.4746 52.9107 37.9606ZM43.1623 34.1834L45.7647 45.4844L48.3589 45.76L45.8623 34.9618C44.9945 34.6618 44.0783 34.4104 43.1623 34.1834ZM20.5635 34.0472L22.5355 42.6428C23.3519 42.7994 24.2417 42.931 25.1811 43.0618L23.0005 33.6764C22.1631 33.7604 21.3507 33.892 20.5635 34.0472Z" fill="current"/>
<path d="M17.199 60.543C8.66784 60.543 8.76904 73.3754 17.2372 73.3754C25.7948 73.329 25.7082 60.543 17.199 60.543Z" fill="current"/>
<path d="M17.2385 71.3914C11.3309 71.3914 11.4093 62.5102 17.1973 62.5102C23.1139 62.5102 23.0517 71.3914 17.2385 71.3914Z" fill="current"/>
<path d="M18.3714 63.4168C17.9602 64.0262 17.3658 65.9134 16.9648 65.135L16.068 63.4168C16.4298 63.2972 16.817 63.2342 17.2198 63.2342C17.6224 63.2344 18.0096 63.2972 18.3714 63.4168ZM18.3714 70.4848C17.635 70.7282 16.8058 70.7286 16.068 70.4848C16.4722 69.8868 17.0686 67.9906 17.4746 68.7666L18.3714 70.4848ZM13.9028 65.2672C14.2584 64.5654 14.8312 63.9928 15.5328 63.6372L16.115 65.4844C16.377 66.3296 14.6014 65.4022 13.9028 65.2672ZM20.5334 68.6376C20.1746 69.3362 19.602 69.909 18.9034 70.2646C18.7616 69.53 17.8532 67.7856 18.6862 68.0556L20.5334 68.6376ZM13.6826 68.1026C13.4454 67.3848 13.433 66.5548 13.6826 65.799L15.404 66.6958C16.1742 67.0988 14.3136 67.6768 13.6826 68.1026ZM20.7536 68.1026C20.1442 67.6912 18.257 67.097 19.0354 66.696L20.7536 65.7992C20.9912 66.5182 21.0028 67.3484 20.7536 68.1026ZM15.533 70.2644C14.8344 69.9088 14.2616 69.336 13.903 68.6374L15.7534 68.0552C16.5934 67.7832 15.6664 69.5786 15.533 70.2644ZM20.5334 65.2672C19.7972 65.4094 18.0544 66.3174 18.3242 65.4844L18.9032 63.6372C19.605 63.9928 20.1778 64.5654 20.5334 65.2672Z" fill="current"/>
<path d="M66.6985 62.246C63.3437 62.246 60.6383 64.9694 60.6563 68.3242C60.6563 68.9734 60.7645 69.6048 60.9629 70.2C61.7385 72.6348 64.0291 74.3842 66.7345 74.3842C74.8293 74.3404 74.7473 62.246 66.6985 62.246Z" fill="current"/>
<path d="M66.7359 72.5076C64.3365 72.5076 62.5161 70.562 62.5161 68.3268C62.5161 65.924 64.4611 64.107 66.6969 64.107C72.2937 64.1068 72.2349 72.5076 66.7359 72.5076Z" fill="current"/>
<path d="M67.8072 64.9644C67.4454 65.5006 66.8612 67.336 66.4766 66.5896L65.6282 64.9644C65.9704 64.8512 66.3366 64.7918 66.7176 64.7918C67.0986 64.7918 67.465 64.8514 67.8072 64.9644ZM67.8072 71.65C67.1108 71.8802 66.3262 71.8806 65.6282 71.65L66.4766 70.0248C66.5778 69.8314 66.8576 69.8314 66.9588 70.0248L67.8072 71.65ZM63.5804 66.7148C63.9168 66.051 64.4586 65.5092 65.1224 65.1728L65.673 66.92C65.916 67.7044 64.3096 66.8556 63.5804 66.7148ZM69.8522 69.9028C69.5128 70.5636 68.9712 71.1054 68.3104 71.4418C68.1902 70.8194 67.3026 69.0922 68.105 69.3522L69.8522 69.9028ZM65.0002 68.5484L63.372 69.3968C63.1476 68.718 63.1358 67.9326 63.372 67.2178L65.0002 68.0662C65.1938 68.1674 65.1938 68.4472 65.0002 68.5484ZM70.0606 69.3966C69.5244 69.0348 67.689 68.4506 68.4354 68.066L70.0606 67.2176C70.2854 67.898 70.2964 68.6834 70.0606 69.3966ZM65.1224 71.4416C64.4616 71.1052 63.9198 70.5634 63.5804 69.9026L65.3308 69.352C66.1292 69.0934 65.2442 70.8146 65.1224 71.4416ZM69.8522 66.7148C69.2298 66.835 67.5026 67.7226 67.7626 66.9202L68.3104 65.173C68.9742 65.5092 69.5158 66.051 69.8522 66.7148Z" fill="current"/>
<path d="M42.3979 49.714L49.046 50.09L49.124 48.538L42.492 48.146L42.3979 49.714Z" fill="current"/>
<path d="M17.1699 47.798L23.8179 48.176L23.8959 46.622L17.2639 46.232L17.1699 47.798Z" fill="current"/>
<path d="M92.8578 72.9014L89.6164 73.4686C89.6164 73.4686 87.4082 73.6712 86.0914 73.5698C84.7544 73.4484 85.8686 72.719 86.7802 72.4558C87.7122 72.2128 89.738 70.5514 89.738 70.5514L90.7914 70.2274L91.9258 71.2808L92.8578 72.9014Z" fill="current"/>
<path d="M95.7924 71.6348C95.7924 71.6348 97.277 73.5896 96.2456 73.9498C95.2142 74.31 90.8598 74.5064 90.5242 74.3018C90.1886 74.0972 88.5762 73.958 89.8612 73.2214C91.1462 72.4848 93.3244 71.4138 93.504 70.6356C93.6836 69.8574 94.453 69.98 94.453 69.98L95.7924 71.6348Z" fill="current"/>
<path d="M87.8862 55.4404C87.8862 55.4404 88.1396 60.631 88.7068 61.9824C89.274 63.3338 90.0512 69.3198 89.7382 70.556C89.7382 70.556 90.9868 71.8666 91.921 71.286C91.921 71.286 91.7442 65.795 92.1104 64.2676C92.4766 62.7402 91.3278 59.9378 91.3278 59.8622C91.3278 59.7864 91.3782 54.4594 91.3782 54.3584C91.3782 54.2574 90.8228 53.5884 90.785 53.5884C90.747 53.5882 87.8862 55.4404 87.8862 55.4404Z" fill="current"/>
<path d="M90.5684 55.7342C90.5684 55.7342 90.7396 60.1014 91.9764 62.0658C93.2132 64.0302 94.0188 68.747 93.5042 70.6354C93.5042 70.6354 94.5042 72.4384 95.7926 71.6348C95.7926 71.6348 96.1256 63.9398 94.397 60.7874C94.397 60.7874 94.08 58.226 95.1028 56.24C96.1258 54.254 92.9558 53.7202 92.9558 53.7202L90.5684 55.7342ZM86.1778 30.1008C85.1554 28.6562 83.7858 29.96 83.7858 29.96C82.1724 29.6506 81.0374 30.6542 81.0374 30.6542C78.8894 32.7366 80.0994 33.956 80.0994 33.956C80.0994 33.956 80.1088 33.9748 80.1276 34.0122C80.2684 34.2748 80.8404 35.3162 81.0282 35.3256C81.2534 35.335 81.6942 35.4568 81.8254 36.076C81.9662 36.6952 82.651 36.3386 82.651 36.3386C82.7446 36.742 83.2794 36.6294 83.2794 36.6294C83.2794 36.6294 83.2606 36.892 83.5046 36.8076C83.7578 36.7232 84.0862 37.0046 84.0862 37.0046C85.0242 37.2484 85.193 36.1228 85.193 36.1228C85.4088 35.5696 85.9058 35.8508 85.9058 35.8508C85.9058 35.8508 85.5586 38.965 86.1496 39.19C86.7404 39.4152 86.6186 37.1828 86.5528 36.1228C86.4964 35.063 87.4908 33.6278 87.4908 33.6278C87.4908 33.6278 89.545 33.4682 90.1548 33.1306C90.735 32.8074 87.1814 31.5408 86.1778 30.1008ZM85.193 30.5136C85.193 30.849 84.5176 30.8492 84.5176 30.5136C84.5176 30.3822 85.193 30.1914 85.193 30.5136Z" fill="current"/>
<path d="M97.9945 35.9952C97.9795 37.3714 96.8859 42.5884 96.3041 43.2058C95.7223 43.823 94.8461 44.5398 93.6571 44.7816C93.6571 44.7816 92.9195 45.4582 92.7007 45.1802C92.4819 44.9022 93.4161 44.3008 93.4161 44.3008C93.4161 44.3008 92.3909 44.7974 92.2633 44.9296C92.1357 45.0618 91.8305 45.2942 91.8259 44.9296C91.8259 44.9296 91.0559 44.9706 91.4705 44.4512C91.8851 43.9318 92.3773 43.672 92.3773 43.672C92.3773 43.672 91.6665 43.7632 91.5025 43.8724C91.3385 43.9818 90.9875 43.7266 91.4387 43.4896C91.8899 43.2526 92.5643 42.8244 93.3981 42.8244C94.2319 42.8244 95.3165 42.2776 95.3575 42.036C95.3985 41.7944 95.8949 37.5866 95.4051 37.2386C94.9153 36.8906 92.2991 36.527 92.2991 36.527C92.2991 36.527 91.5257 38.7208 91.4741 38.7208C86.8481 38.7208 87.3499 39.6742 87.3499 35.1764C87.3499 35.099 87.5433 34.0036 87.6077 33.8876C87.6721 33.7716 89.0641 33.3076 89.0641 33.3076C96.1727 34.3496 98.0033 35.1914 97.9945 35.9952Z" fill="current"/>
<path d="M92.3028 36.5262C92.3028 36.5262 91.5242 38.721 91.4774 38.721C86.845 38.721 87.3502 39.677 87.3502 35.1754C87.3502 35.1006 87.5472 34.0028 87.6034 33.8904C87.669 33.7684 89.0666 33.3088 89.0666 33.3088L91.5712 33.6654C91.5712 33.6654 88.8978 33.4872 88.7758 34.8472C88.6538 36.2072 89.3668 39.1526 91.5712 36.9952C91.5712 36.9952 91.9368 36.545 92.3028 36.5262Z" fill="current"/>
<path d="M88.1876 48.871L87.7344 55.4404H90.409C90.409 55.4404 92.9982 49.1292 92.9546 49.0982C92.911 49.0672 91.6712 46.5006 91.6712 46.5006L88.887 47.6316L88.1876 48.871Z" fill="current"/>
<path d="M96.6956 47.1128C96.6956 47.1128 96.895 49.9934 95.9972 52.6696C95.0994 55.3458 95.293 56.2612 95.293 56.2612L90.3984 55.7154L90.733 46.9124L90.8672 47.6266L93.8972 45.2684L96.6956 47.1128Z" fill="current"/>
<path d="M96.6926 47.1162C96.6926 47.1162 94.9478 47.876 93.8974 45.2682C93.9348 45.4746 94.0756 46.422 93.4846 46.8066C92.8092 47.2286 88.56 49.8832 88.1848 48.8702C87.8096 47.8664 87.6782 44.9494 87.6782 44.9494L87.0404 42.276C87.0404 42.276 84.8362 42.5762 85.1738 39.6964C85.5114 36.8166 85.5396 35.785 85.5396 35.785L86.0836 33.4962C86.0836 33.4962 86.787 32.699 86.8246 32.6896C86.9278 32.6896 90.1546 33.1304 90.1546 33.1304L91.571 33.6652C91.571 33.6652 88.8976 33.487 88.7756 34.847C88.6536 36.207 89.3666 39.1524 91.571 36.995C91.571 36.995 91.9368 36.5448 92.3026 36.526H92.312C92.3494 36.526 92.3776 36.526 92.4152 36.5448C92.434 36.5354 92.4434 36.5448 92.4622 36.5542C92.5748 36.5822 92.678 36.6668 92.7718 36.8168C93.5934 38.1416 95.1514 41.9812 95.2388 42.1822C94.9386 42.4542 94.085 42.82 93.4004 42.82C92.5656 42.82 91.8902 43.2514 91.4398 43.486C90.9896 43.7298 91.3368 43.9832 91.5056 43.8704C91.6462 43.7768 92.209 43.7016 92.3498 43.6828C92.2374 43.7486 91.8246 44.0018 91.4682 44.452C91.0556 44.9678 91.8246 44.9304 91.8246 44.9304C91.8368 45.4082 92.0796 44.9382 93.3912 44.3206C93.2224 44.4332 92.5096 44.9304 92.697 45.1838C92.9222 45.4558 93.6538 44.7804 93.6538 44.7804C94.4886 44.6116 95.1638 44.2082 95.6986 43.7674L96.6926 47.1162Z" fill="current"/>
<path d="M86.1778 30.1008C85.1554 28.6562 83.7858 29.96 83.7858 29.96C82.1724 29.6506 81.0374 30.6542 81.0374 30.6542C78.8894 32.7366 80.0994 33.956 80.0994 33.956C80.0994 33.956 80.1088 33.9748 80.1276 34.0122C80.1276 34.0122 81.9098 32.9992 82.8196 33.4496C83.7294 33.8998 83.6168 33.093 83.6168 33.093C83.6168 33.093 83.645 31.4328 84.7706 32.3238C85.9056 33.2056 86.7122 33.29 87.003 33.1304C87.3032 32.971 89.6952 33.1774 89.6952 33.1774C89.6952 33.1774 89.8922 33.0742 90.1642 32.9242C89.7516 32.427 87.0408 31.339 86.1778 30.1008ZM84.5176 30.5136C84.5176 30.191 85.193 30.1916 85.193 30.5136C85.193 30.6542 84.5176 30.8492 84.5176 30.5136Z" fill="current"/>
<path d="M80.389 27.54C72.326 30.3762 66.1674 44.152 66.1066 44.2938L64.2632 43.4834C64.5266 42.8758 70.827 28.7556 79.7002 25.6154L80.389 27.54Z" fill="current"/>
</svg>
