<svg width="84" height="84" viewBox="0 0 84 84" fill="none" xmlns="http://www.w3.org/2000/svg">
<path d="M39.8655 42.1608C39.683 41.9463 39.589 41.6704 39.6025 41.3891C39.6161 41.1078 39.7362 40.8422 39.9386 40.6463L40.562 40.0312H25.5083C24.874 40.0312 24.2812 39.5036 24.2812 38.8692V31.9215C24.2812 31.2872 24.874 30.8438 25.5083 30.8438H42.9463C43.5806 30.8438 44.1328 31.2867 44.1328 31.9215V36.4918L44.5102 36.0947C44.7085 35.8925 44.9758 35.7727 45.2586 35.759C45.5415 35.7454 45.8191 35.839 46.0359 36.0212L49.0783 38.5394C50.5496 37.6575 52.1378 36.9874 53.7961 36.5487L54.1795 32.5728C54.2056 32.2851 54.3363 32.0171 54.5468 31.8193C54.7574 31.6216 55.0331 31.508 55.3219 31.5H61.7695C62.059 31.5074 62.3358 31.6207 62.5474 31.8184C62.759 32.0161 62.8909 32.2845 62.918 32.5728L63.3061 36.5666C63.4751 36.6114 63.6566 36.6603 63.8206 36.7103V30.1642C63.8178 29.4336 63.6662 28.7112 63.3751 28.0411C63.0839 27.3709 62.6594 26.7671 62.1273 26.2664C62.1109 26.25 62.0844 26.2436 62.0681 26.2264L60.689 24.7734H8.52075L6.57366 26.5501C6.56102 26.5619 6.5333 26.5532 6.51984 26.5645C5.92102 27.067 5.4386 27.6936 5.10602 28.4011C4.77344 29.1085 4.59864 29.8798 4.59375 30.6615V44.625H41.9344L39.8655 42.1608ZM14.4957 40.0312H13.4311C12.191 40.0312 11.0017 39.5386 10.1249 38.6617C9.24798 37.7849 8.75536 36.5956 8.75536 35.3555C8.75536 34.1154 9.24798 32.9261 10.1249 32.0492C11.0017 31.1723 12.191 30.6797 13.4311 30.6797H14.4957C15.7358 30.6797 16.9251 31.1723 17.802 32.0492C18.6789 32.9261 19.1715 34.1154 19.1715 35.3555C19.1715 36.5956 18.6789 37.7849 17.802 38.6617C16.9251 39.5386 15.7358 40.0312 14.4957 40.0312Z" fill="current"/>
<path d="M14.6016 46.9219H4.59375V53.1562H14.6016V46.9219Z" fill="current"/>
<path d="M14.4956 32.9766H13.431C12.8001 32.9766 12.195 33.2272 11.7488 33.6733C11.3027 34.1195 11.0521 34.7245 11.0521 35.3555C11.0521 35.9864 11.3027 36.5915 11.7488 37.0376C12.195 37.4837 12.8001 37.7344 13.431 37.7344H14.4956C15.1265 37.7344 15.7316 37.4837 16.1777 37.0376C16.6239 36.5915 16.8745 35.9864 16.8745 35.3555C16.8745 34.7245 16.6239 34.1195 16.1777 33.6733C15.7316 33.2272 15.1265 32.9766 14.4956 32.9766ZM55.2151 10.6244C54.9868 10.0121 54.5774 9.48389 54.0415 9.10999C53.5057 8.73608 52.8686 8.53422 52.2152 8.53125H17.1088C16.4554 8.53428 15.8184 8.73618 15.2826 9.11008C14.7468 9.48398 14.3375 10.0122 14.1092 10.6244L9.71924 22.4766H59.6046L55.2151 10.6244Z" fill="current"/>
<path d="M41.8359 33.1406H26.5781V37.7344H41.8359V33.1406Z" fill="current"/>
<path d="M58.5225 50.1539C57.6273 50.1557 56.7528 50.4228 56.0093 50.9214C55.2658 51.4201 54.6869 52.1279 54.3455 52.9555C54.0042 53.783 53.9158 54.6932 54.0915 55.571C54.2673 56.4487 54.6992 57.2547 55.3329 57.8871C55.9665 58.5195 56.7733 58.9498 57.6515 59.1238C58.5296 59.2978 59.4396 59.2076 60.2665 58.8646C61.0933 58.5216 61.8 57.9413 62.2972 57.1968C62.7943 56.4524 63.0597 55.5772 63.0597 54.682C63.057 53.4804 62.5779 52.3288 61.7273 51.4799C60.8767 50.6311 59.7242 50.1542 58.5225 50.1539Z" fill="current"/>
<path d="M58.5227 43.3502C56.2822 43.354 54.093 44.0219 52.2319 45.2695C50.3708 46.517 48.9213 48.2883 48.0665 50.3594C47.2118 52.4305 46.9901 54.7085 47.4296 56.9055C47.8691 59.1026 48.95 61.12 50.5357 62.7029C52.1214 64.2859 54.1407 65.3632 56.3385 65.7989C58.5363 66.2345 60.8139 66.0089 62.8835 65.1505C64.9531 64.2921 66.7219 62.8395 67.9662 60.9762C69.2105 59.1129 69.8745 56.9226 69.8744 54.682C69.8683 51.6751 68.6697 48.7933 66.5416 46.6689C64.4135 44.5445 61.5297 43.351 58.5227 43.3502ZM58.5227 61.5083C57.1733 61.5066 55.8546 61.1048 54.7334 60.3537C53.6122 59.6027 52.7389 58.5362 52.2237 57.2889C51.7085 56.0416 51.5746 54.6696 51.839 53.3463C52.1034 52.023 52.7541 50.8077 53.7089 49.8541C54.6638 48.9006 55.8799 48.2514 57.2036 47.9888C58.5273 47.7262 59.8991 47.8619 61.1457 48.3787C62.3922 48.8956 63.4576 49.7703 64.2072 50.8925C64.9567 52.0147 65.3568 53.3339 65.3568 54.6833C65.3534 56.494 64.632 58.2294 63.3509 59.5088C62.0697 60.7883 60.3334 61.5074 58.5227 61.5083Z" fill="current"/>
<path d="M74.5904 51.2448C74.1682 49.2914 73.3835 47.4345 72.2771 45.7703C72.1403 45.5647 72.0735 45.3204 72.0865 45.0738C72.0995 44.8272 72.1916 44.5913 72.3493 44.4012L74.7382 41.5195L71.7134 38.4628L68.8406 40.8417C68.6524 40.9967 68.4198 41.0878 68.1764 41.1018C67.933 41.1157 67.6915 41.0519 67.4868 40.9195C65.811 39.8198 63.9496 39.0331 61.9931 38.5975C61.7533 38.5428 61.5367 38.4138 61.3745 38.2289C61.2122 38.0439 61.1124 37.8125 61.0893 37.5675L60.7274 33.7969H56.3633L56.0013 37.5683C55.9786 37.8151 55.8795 38.0487 55.7178 38.2364C55.556 38.4241 55.3396 38.5566 55.0989 38.6154C53.1433 39.0341 51.2836 39.8161 49.6164 40.9208C49.4109 41.0567 49.1671 41.1229 48.921 41.1096C48.6749 41.0963 48.4397 41.0043 48.25 40.847L45.3725 38.4608L42.3024 41.5255L44.6906 44.4017C44.8475 44.59 44.9399 44.8236 44.9545 45.0683C44.9691 45.3129 44.905 45.5558 44.7717 45.7615C43.6761 47.4367 42.8919 49.2958 42.4566 51.2495C42.4066 51.4853 42.2828 51.699 42.1032 51.8598C41.9236 52.0205 41.6975 52.1199 41.4576 52.1435L37.7344 52.5057V56.8596L41.4568 57.2219C41.6961 57.2459 41.9214 57.3462 42.0994 57.508C42.2774 57.6698 42.3987 57.8845 42.4454 58.1205C42.8675 60.0737 43.6522 61.9305 44.7587 63.5946C44.8954 63.8002 44.9622 64.0443 44.9492 64.2909C44.9362 64.5375 44.8441 64.7733 44.6865 64.9633L42.3022 67.8398L45.3731 70.904L48.2509 68.5169C48.4385 68.361 48.6708 68.2689 48.9142 68.2538C49.1576 68.2387 49.3995 68.3015 49.6048 68.4331C51.281 69.529 53.1423 70.3116 55.0981 70.7426C55.3362 70.7919 55.5524 70.9159 55.715 71.0968C55.8776 71.2776 55.9781 71.5056 56.0019 71.7477L56.364 75.4688H60.7281L61.09 71.7472C61.114 71.5063 61.2146 71.2795 61.377 71.1001C61.5394 70.9206 61.7551 70.7979 61.9923 70.75C63.948 70.3311 65.8077 69.5491 67.475 68.4446C67.6806 68.3085 67.9245 68.2423 68.1707 68.2556C68.4168 68.2688 68.6522 68.361 68.8419 68.5184L71.7201 70.9045L74.7918 67.8398L72.409 64.9637C72.2532 64.7746 72.1619 64.5407 72.1485 64.296C72.1351 64.0514 72.2002 63.8089 72.3345 63.6039C73.434 61.9292 74.2226 60.0701 74.6625 58.1157C74.7182 57.8783 74.8469 57.6643 75.0306 57.504C75.2143 57.3436 75.4437 57.245 75.6865 57.2219L79.4062 56.8608V52.5057L75.6315 52.1435C75.3859 52.1209 75.1536 52.0221 74.9669 51.8609C74.7803 51.6998 74.6486 51.4844 74.5904 51.2448ZM58.5226 68.3119C55.8278 68.3081 53.1946 67.5055 50.9558 66.0056C48.717 64.5057 46.9731 62.3758 45.9445 59.8851C44.9158 57.3943 44.6486 54.6546 45.1766 52.012C45.7046 49.3695 47.0042 46.9427 48.911 45.0385C50.8178 43.1343 53.2463 41.8381 55.8896 41.3138C58.5328 40.7894 61.2722 41.0603 63.7616 42.0924C66.2509 43.1244 68.3784 44.8713 69.8752 47.1121C71.372 49.353 72.171 51.9872 72.1711 54.682C72.1647 58.2982 70.7241 61.7641 68.1653 64.3193C65.6066 66.8746 62.1387 68.3104 58.5226 68.3119Z" fill="current"/>
</svg>
