<svg width="84" height="84" viewBox="0 0 84 84" fill="none" xmlns="http://www.w3.org/2000/svg">
<path d="M59.5 17.5C62.405 17.5 64.75 15.155 64.75 12.25C64.75 8.75005 59.5 2.80005 59.5 2.80005C59.5 2.80005 54.25 8.75005 54.25 12.25C54.25 15.155 56.595 17.5 59.5 17.5ZM42 17.5C44.905 17.5 47.25 15.155 47.25 12.25C47.25 8.75005 42 2.80005 42 2.80005C42 2.80005 36.75 8.75005 36.75 12.25C36.75 15.155 39.095 17.5 42 17.5ZM24.5 17.5C27.405 17.5 29.75 15.155 29.75 12.25C29.75 8.75005 24.5 2.80005 24.5 2.80005C24.5 2.80005 19.25 8.75005 19.25 12.25C19.25 15.155 21.595 17.5 24.5 17.5ZM66.22 28.035C65.5025 25.97 63.5425 24.5 61.25 24.5H22.75C20.4575 24.5 18.4975 25.97 17.78 28.035L10.5 49V77C10.5 78.925 12.075 80.5 14 80.5H17.5C19.4425 80.5 21 78.925 21 77V73.5H63V77C63 78.925 64.575 80.5 66.5 80.5H70C71.9425 80.5 73.5 78.925 73.5 77V49L66.22 28.035ZM22.75 63C19.845 63 17.5 60.655 17.5 57.75C17.5 54.845 19.845 52.5 22.75 52.5C25.655 52.5 28 54.845 28 57.75C28 60.655 25.655 63 22.75 63ZM61.25 63C58.345 63 56 60.655 56 57.75C56 54.845 58.345 52.5 61.25 52.5C64.155 52.5 66.5 54.845 66.5 57.75C66.5 60.655 64.155 63 61.25 63ZM17.5 45.5L22.75 29.75H61.25L66.5 45.5H17.5Z" fill="current"/>
</svg>
