<svg width="84" height="84" viewBox="0 0 84 84" fill="none" xmlns="http://www.w3.org/2000/svg">
<path d="M84 53.025C84 29.925 65.1 10.5 42 10.5C18.9 10.5 0 29.925 0 53.025C0 60.375 1.575 68.25 4.725 73.5H30.45C33.075 76.65 37.275 78.75 42 78.75C46.725 78.75 50.925 76.65 53.55 73.5H79.275C82.425 68.25 84 60.375 84 53.025ZM73.5 36.75V42L51.975 60.375C51.975 60.9 52.5 61.95 52.5 63C52.5 68.775 47.775 73.5 42 73.5C36.225 73.5 31.5 68.775 31.5 63C31.5 57.225 36.225 52.5 42 52.5C43.575 52.5 45.15 53.025 46.2 53.55L68.25 36.75H73.5ZM52.5 21H57.75V26.25H52.5V21ZM26.25 21H31.5V26.25H26.25V21ZM10.5 63H5.25V57.75H10.5V63ZM15.75 42H10.5V36.75H15.75V42ZM78.75 63H73.5V57.75H78.75V63Z" fill="current"/>
<path d="M47.25 63C47.25 64.3924 46.6969 65.7277 45.7123 66.7123C44.7277 67.6969 43.3924 68.25 42 68.25C40.6076 68.25 39.2723 67.6969 38.2877 66.7123C37.3031 65.7277 36.75 64.3924 36.75 63C36.75 61.6076 37.3031 60.2723 38.2877 59.2877C39.2723 58.3031 40.6076 57.75 42 57.75C43.3924 57.75 44.7277 58.3031 45.7123 59.2877C46.6969 60.2723 47.25 61.6076 47.25 63Z" fill="current"/>
</svg>
