<svg width="22" height="22" viewBox="0 0 22 22" fill="#F73232" xmlns="http://www.w3.org/2000/svg">
<g clip-path="url(#clip0_830_835)">
<path d="M10 0C3.93281 0 -1 4.93281 -1 11C-1 17.0672 3.93281 22 10 22C16.0672 22 21 17.0672 21 11C21 4.93281 16.0672 0 10 0Z" fill="current"/>
<path d="M10.9145 16.5C10.9145 17.007 10.502 17.4152 9.99922 17.4152C9.49648 17.4152 9.08398 17.0027 9.08398 16.5C9.08398 15.9973 9.49648 15.5848 9.99922 15.5848C10.502 15.5848 10.9145 15.993 10.9145 16.5Z" fill="#FAFAFA"/>
<path d="M10.9145 12.8348C10.9145 13.3418 10.502 13.75 9.99922 13.75C9.49648 13.75 9.08398 13.3375 9.08398 12.8348V5.50001C9.08398 4.99298 9.49648 4.58478 9.99922 4.58478C10.502 4.58478 10.9145 4.99728 10.9145 5.50001V12.8348Z" fill="#FAFAFA"/>
</g>
<defs>
<clipPath id="clip0_830_835">
<rect width="22" height="22" fill="white"/>
</clipPath>
</defs>
</svg>
