<svg width="32" height="39" viewBox="0 0 32 39" fill="none" xmlns="http://www.w3.org/2000/svg">
<path fill-rule="evenodd" clip-rule="evenodd" d="M3.55556 38.4137H28.4444C30.4081 38.4137 32 36.5199 32 34.1838V4.57461C32 2.23851 30.4081 0.344727 28.4444 0.344727H3.55556C1.59188 0.344727 0 2.23851 0 4.57461V34.1838C0 36.5199 1.59188 38.4137 3.55556 38.4137Z" fill="current"/>
<path fill-rule="evenodd" clip-rule="evenodd" d="M27.5564 33.1263H22.8078V23.5045C22.8078 20.8664 21.9652 19.3922 20.2101 19.3922C18.3007 19.3922 17.3031 20.9263 17.3031 23.5045V33.1263H12.7268V14.7968H17.3031V17.2658C17.3031 17.2658 18.6791 14.2368 21.9487 14.2368C25.2167 14.2368 27.5564 16.611 27.5564 21.5212V33.1263ZM7.26725 12.3967C5.70845 12.3967 4.44531 10.8822 4.44531 9.01441C4.44531 7.14657 5.70845 5.63208 7.26725 5.63208C8.82604 5.63208 10.0884 7.14657 10.0884 9.01441C10.0884 10.8822 8.82604 12.3967 7.26725 12.3967ZM4.90422 33.1263H9.67616V14.7968H4.90422V33.1263Z" fill="white"/>
</svg>
