<svg width="84" height="84" viewBox="0 0 84 84" fill="none" xmlns="http://www.w3.org/2000/svg">
<path d="M75.3184 24.423C75.5015 23.5209 75.5998 22.5859 75.5998 21.6233C75.5998 20.6657 75.5015 19.7308 75.3184 18.8236H69.4863C69.1385 17.85 68.6219 16.9697 67.9651 16.2011L70.8555 11.1947C69.4577 9.95318 67.8172 9.00398 66.002 8.40002L63.1283 13.377C62.6302 13.2871 62.122 13.2233 61.5995 13.2233C61.0779 13.2233 60.5689 13.2863 60.0716 13.377L57.1979 8.40002C55.3819 9.00398 53.7413 9.95318 52.3444 11.1947L55.234 16.2011C54.578 16.9697 54.0614 17.85 53.7136 18.8236H47.8815C47.6984 19.7308 47.6001 20.6657 47.6001 21.6233C47.6001 22.5859 47.6984 23.5209 47.8815 24.423H53.7136C54.058 25.3966 54.5771 26.2769 55.234 27.048L52.3444 32.0578C53.7413 33.2993 55.3819 34.2451 57.1979 34.8525L60.0741 29.8696C60.5697 29.9595 61.0779 30.0233 61.5995 30.0233C62.122 30.0233 62.6311 29.9603 63.125 29.8696L66.002 34.8525C67.8172 34.2451 69.4577 33.2985 70.8555 32.0578L67.9651 27.048C68.6211 26.2769 69.1411 25.3966 69.4863 24.423H75.3184Z" fill="current"/>
<path d="M50.1924 44.7997C50.3151 43.8808 50.3999 42.9517 50.3999 42C50.3999 41.0483 50.3151 40.1192 50.1924 39.2003H43.1179C42.7542 37.4144 42.0436 35.7571 41.07 34.2863L46.0823 29.2765C45.5187 28.5407 44.9223 27.8242 44.2469 27.1522C43.5741 26.4793 42.8584 25.8804 42.1225 25.3168L37.1103 30.3265C35.6445 29.3563 33.9871 28.6448 32.1988 28.2811V21.2066C31.2807 21.0848 30.3516 21 29.3999 21C28.4482 21 27.5191 21.0848 26.6002 21.2075V28.282C24.8118 28.6457 23.1545 29.3563 21.6887 30.3274L16.6764 25.3176C15.9406 25.8812 15.2241 26.4802 14.5521 27.153C13.8801 27.8258 13.2803 28.5415 12.7167 29.2774L17.7289 34.2871C16.7562 35.758 16.0447 37.4153 15.681 39.2011H8.60654C8.48474 40.1192 8.3999 41.0483 8.3999 42C8.3999 42.9517 8.48474 43.8808 8.60738 44.7997H15.6819C16.0456 46.5856 16.7562 48.2429 17.7298 49.7137L12.7175 54.7235C13.2811 55.4593 13.8801 56.1775 14.5529 56.8504C15.2257 57.5232 15.9414 58.1196 16.6773 58.6832L21.6895 53.6735C23.1553 54.6437 24.8127 55.3552 26.601 55.7189V62.7934C27.5191 62.9152 28.4482 63 29.3999 63C30.3516 63 31.2807 62.9152 32.1996 62.7925V55.718C33.988 55.3543 35.6453 54.6437 37.1111 53.6726L42.1234 58.6824C42.8592 58.1188 43.5757 57.5224 44.2477 56.8495C44.9231 56.1767 45.5195 55.4585 46.0831 54.7226L41.0709 49.7129C42.0436 48.242 42.7551 46.5847 43.1188 44.7989H50.1924V44.7997Z" fill="current"/>
<path d="M75.3184 65.1714C75.5015 64.2693 75.5998 63.3335 75.5998 62.3709C75.5998 61.4141 75.5015 60.4792 75.3184 59.5711H69.4863C69.1385 58.5976 68.6219 57.7173 67.9651 56.9487L70.8555 51.9423C69.4577 50.7007 67.8172 49.7524 66.002 49.1476L63.1283 54.1246C62.6302 54.0347 62.122 53.9709 61.5995 53.9709C61.0779 53.9709 60.5689 54.0339 60.0716 54.1246L57.1979 49.1476C55.3819 49.7524 53.7413 50.7016 52.3444 51.9423L55.234 56.9487C54.578 57.7173 54.0614 58.5976 53.7136 59.5711H47.8815C47.6984 60.4792 47.6001 61.4141 47.6001 62.3709C47.6001 63.3335 47.6984 64.2693 47.8815 65.1714H53.7136C54.058 66.1441 54.5771 67.0253 55.234 67.7964L52.3444 72.8053C53.7413 74.0477 55.3819 74.9927 57.1979 75.6L60.0741 70.618C60.5697 70.7079 61.0779 70.7709 61.5995 70.7709C62.122 70.7709 62.6311 70.7087 63.125 70.618L66.002 75.6C67.8172 74.9927 69.4577 74.0469 70.8555 72.8053L67.9651 67.7964C68.6211 67.0253 69.1411 66.1441 69.4863 65.1714H75.3184Z" fill="current"/>
</svg>
