<svg width="51" height="51" viewBox="-1 -1 54 54" fill="none" xmlns="http://www.w3.org/2000/svg">
<circle cx="25.5" cy="25.5" r="25.5" fill="current"/>
<g clip-path="url(#clip0_830_609)">
<path fill-rule="evenodd" clip-rule="evenodd" d="M35.5946 30.39L31.7846 29.955C30.8696 29.85 29.9696 30.165 29.3246 30.81L26.5646 33.57C22.3196 31.41 18.8396 27.945 16.6796 23.685L19.4546 20.91C20.0996 20.265 20.4146 19.365 20.3096 18.45L19.8746 14.67C19.6946 13.155 18.4196 12.015 16.8896 12.015H14.2946C12.5996 12.015 11.1896 13.425 11.2946 15.12C12.0896 27.93 22.3346 38.16 35.1296 38.955C36.8246 39.06 38.2346 37.65 38.2346 35.955V33.36C38.2496 31.845 37.1096 30.57 35.5946 30.39Z" fill="current"/>
</g>
<defs>
<clipPath id="clip0_830_609">
<rect width="27" height="27" fill="white" transform="translate(11.25 12)"/>
</clipPath>
</defs>
</svg>
