<svg width="50" height="72" viewBox="0 0 50 72" fill="none" xmlns="http://www.w3.org/2000/svg">
<g clip-path="url(#clip0_830_939)">
<path fill-rule="evenodd" clip-rule="evenodd" d="M25 7.62939e-06C11.2143 7.62939e-06 0 11.2143 0 25C0 39.8929 15.7857 60.4286 22.25 68.25C23.6786 69.9643 26.2857 69.9643 27.7143 68.25C34.2143 60.4286 50 39.8929 50 25C50 11.2143 38.7857 7.62939e-06 25 7.62939e-06ZM28.1429 49.1072H21.8929V42.8572H28.1429V49.1072ZM29.5 34.6786C29.3929 34.8214 29.2857 35 29.1786 35.1786C29.1071 35.3214 29 35.4643 28.9286 35.6072C28.8214 35.7857 28.75 35.9643 28.6786 36.1429C28.6071 36.2857 28.5357 36.4286 28.5 36.6072C28.2857 37.2857 28.1429 38.0357 28.1429 38.8572H21.8571C21.8571 37.5714 22 36.5 22.25 35.5357H22.3214V35.3214C24.1429 29.0357 30.75 28.6786 31.1786 23.75C31.4286 20.7143 29.2857 17.7857 26.3214 17.1429C23.0714 16.4286 20.1071 18.3214 19.0714 21.1429C18.6786 22.3214 17.6429 23.2143 16.3571 23.2143H15.7857C13.8214 23.2143 12.4643 21.3214 13.0714 19.4643C14.8571 13.8214 20.5357 9.89287 26.9643 10.8929C32.3929 11.7143 36.6786 16.3572 37.3929 21.7857C38.3571 28.8929 32.3214 30.75 29.5 34.6786Z" fill="current"/>
</g>
<defs>
<clipPath id="clip0_830_939">
<rect width="50" height="71.4286" fill="current"/>
</clipPath>
</defs>
</svg>
