<svg width="18" height="18" viewBox="0 0 18 18" fill="none" xmlns="http://www.w3.org/2000/svg">
<path d="M12.0407 11.2336C12.9437 10.1405 13.514 8.73856 13.514 7.19401C13.514 3.7247 10.6863 0.896973 7.21695 0.896973C3.74764 0.896973 0.919922 3.7247 0.919922 7.19401C0.919922 10.6633 3.74764 13.491 7.21695 13.491C8.73774 13.491 10.1635 12.9445 11.2566 12.0178L16.1516 16.9128C16.2704 17.0316 16.413 17.0792 16.5556 17.0792C16.6981 17.0792 16.8407 17.0316 16.9595 16.9128C17.1734 16.699 17.1734 16.3188 16.9595 16.1049L12.0407 11.2336ZM7.19319 12.3504C4.3417 12.3504 2.03675 10.0455 2.03675 7.19401C2.03675 4.34252 4.3417 2.03757 7.19319 2.03757C10.0447 2.03757 12.3496 4.34252 12.3496 7.19401C12.3496 10.0455 10.0447 12.3504 7.19319 12.3504Z" fill="current"/>
</svg>
