<svg width="84" height="84" viewBox="0 0 84 84" fill="none" xmlns="http://www.w3.org/2000/svg">
<path d="M42 0C18.8055 0 0 18.8055 0 42C0 65.1945 18.8055 84 42 84C65.1945 84 84 65.1945 84 42C84 18.8055 65.1945 0 42 0ZM42 10.5C55.6684 10.5 67.2131 19.3043 71.5732 31.5H12.4268C16.7869 19.3043 28.3316 10.5 42 10.5ZM42 47.25C39.0994 47.25 36.75 44.9006 36.75 42C36.75 39.0994 39.0994 36.75 42 36.75C44.9006 36.75 47.25 39.0994 47.25 42C47.25 44.9006 44.9006 47.25 42 47.25ZM10.5 42C24.8456 42 36.4639 55.8233 36.708 72.9671C21.861 70.4235 10.5 57.5558 10.5 42ZM47.292 72.9671C47.5361 55.8233 59.1544 42 73.5 42C73.5 57.5558 62.139 70.4235 47.292 72.9671Z" fill="current"/>
</svg>
