<svg width="84" height="84" viewBox="0 0 84 84" fill="none" xmlns="http://www.w3.org/2000/svg">
<path d="M78.19 42C77.7491 41.8515 77.3852 41.5339 77.1785 41.1171C76.9717 40.7003 76.939 40.2184 77.0875 39.7775C77.236 39.3366 77.5536 38.9727 77.9704 38.766C78.3872 38.5592 78.8691 38.5265 79.31 38.675L82.1625 39.62C81.6265 30.2061 77.7769 21.2855 71.295 14.4375C68.81 15.75 68.775 15.75 68.25 15.75C67.8581 15.7477 67.4784 15.6139 67.1716 15.3701C66.8648 15.1263 66.6487 14.7866 66.558 14.4054C66.4672 14.0242 66.507 13.6235 66.671 13.2676C66.835 12.9117 67.1137 12.6212 67.4625 12.4425L68.635 11.8475C61.6286 5.60031 52.6431 2.02471 43.26 1.75C42.105 5.25 42 7 40.25 7C39.9717 7.00072 39.6973 6.93507 39.4495 6.80851C39.2017 6.68194 38.9876 6.49811 38.8251 6.27226C38.6625 6.0464 38.5562 5.78505 38.5149 5.50987C38.4736 5.23469 38.4985 4.95363 38.5875 4.69L39.5325 1.8375C30.1492 2.39372 21.2628 6.242 14.4375 12.705L15.5575 14.9625C15.7274 15.3704 15.7366 15.8275 15.5834 16.2419C15.4302 16.6564 15.1259 16.9976 14.7316 17.197C14.3373 17.3963 13.8821 17.4392 13.4575 17.3168C13.0329 17.1945 12.6703 16.9161 12.4425 16.5375L11.8475 15.365C5.60031 22.3714 2.02471 31.3569 1.75 40.74L5.775 42.0875C6.22753 42.2314 6.60436 42.5491 6.82261 42.9709C7.04085 43.3926 7.08263 43.8837 6.93875 44.3363C6.79487 44.7888 6.47712 45.1656 6.0554 45.3839C5.63367 45.6021 5.14253 45.6439 4.69 45.5L1.8375 44.555C2.41506 53.9726 6.30845 62.8815 12.8275 69.7025L16.94 68.3375C17.3809 68.189 17.8628 68.2217 18.2796 68.4285C18.6964 68.6352 19.014 68.9991 19.1625 69.44C19.311 69.8809 19.2783 70.3628 19.0715 70.7796C18.8648 71.1964 18.5009 71.514 18.06 71.6625L15.75 72.45C22.6997 78.5022 31.5288 81.9646 40.74 82.25L42.0875 78.225C42.236 77.7841 42.5536 77.4202 42.9704 77.2135C43.3872 77.0067 43.8691 76.974 44.31 77.1225C44.7509 77.271 45.1148 77.5886 45.3215 78.0054C45.5283 78.4222 45.561 78.9041 45.4125 79.345L44.4675 82.25C53.9157 81.6928 62.8589 77.798 69.7025 71.26L68.3375 67.1475C68.264 66.9292 68.2341 66.6985 68.2497 66.4687C68.2654 66.2388 68.3261 66.0143 68.4285 65.8079C68.5308 65.6015 68.6729 65.4173 68.8464 65.2659C69.02 65.1144 69.2217 64.9985 69.44 64.925C69.6583 64.8515 69.889 64.8216 70.1188 64.8372C70.3487 64.8529 70.5732 64.9136 70.7796 65.016C70.986 65.1183 71.1702 65.2604 71.3216 65.4339C71.4731 65.6075 71.589 65.8092 71.6625 66.0275L72.45 68.25C78.5022 61.3003 81.9646 52.4712 82.25 43.26L78.19 42ZM42 73.5C35.7699 73.5 29.6797 71.6526 24.4995 68.1913C19.3194 64.73 15.282 59.8104 12.8978 54.0545C10.5136 48.2987 9.88983 41.9651 11.1053 35.8547C12.3207 29.7443 15.3208 24.1315 19.7261 19.7261C24.1315 15.3208 29.7443 12.3207 35.8547 11.1053C41.9651 9.88983 48.2987 10.5136 54.0545 12.8978C59.8104 15.282 64.73 19.3194 68.1913 24.4995C71.6526 29.6797 73.5 35.7699 73.5 42C73.5 50.3543 70.1813 58.3665 64.2739 64.2739C58.3665 70.1813 50.3543 73.5 42 73.5Z" fill="current"/>
<path d="M34.7027 22.2949C34.5977 21.7524 34.7902 22.7324 33.4252 15.2949C29.6009 16.5181 26.0893 18.5606 23.1352 21.2799L28.5602 25.8299C30.3881 24.3056 32.4664 23.1095 34.7027 22.2949ZM60.8827 21.3324C57.9163 18.6208 54.4008 16.5796 50.5752 15.3474C49.2802 22.3474 49.3677 21.8749 49.2977 22.3474C51.5393 23.1463 53.624 24.3308 55.4577 25.8474C55.8777 25.5499 54.8452 26.4074 60.8827 21.3324ZM62.7202 38.4999C63.1246 40.8921 63.1246 43.3352 62.7202 45.7274C63.3677 46.0074 62.3177 45.6049 69.3352 48.2299C70.2532 44.2493 70.2891 40.1159 69.4402 36.1199C62.5627 38.5874 63.1227 38.3774 62.7202 38.4999ZM55.1777 58.3449C53.4208 59.7784 51.4402 60.9136 49.3152 61.7049C49.4027 62.2999 49.2102 61.1974 50.5752 68.7049C54.2474 67.4993 57.6355 65.5581 60.5327 62.9999C55.1077 58.2574 55.5452 58.6249 55.1777 58.3449ZM23.4677 62.8074C26.4698 65.2963 29.9471 67.148 33.6877 68.2499C35.0177 61.4599 34.9302 61.9849 35.0002 61.5474C32.8297 60.8091 30.7914 59.7279 28.9627 58.3449C28.4902 58.6949 29.2427 58.0999 23.4677 62.8074ZM21.3327 45.7974C20.9223 43.4058 20.9223 40.9616 21.3327 38.5699C20.8252 38.3599 22.1727 38.8499 14.6477 36.1724C13.8131 40.1705 13.8549 44.302 14.7702 48.2824C21.5077 45.7449 21.0002 45.9724 21.3327 45.7974ZM30.3102 38.3774C30.8281 36.6602 31.7252 35.0813 32.9352 33.7574C24.6577 27.2649 27.4227 29.5224 20.6852 23.8524C18.4254 26.4819 16.6855 29.5164 15.5577 32.7949C23.8527 35.7524 20.5277 34.4924 30.3102 38.3774ZM33.0227 50.3299C31.7953 49.0205 30.8747 47.4543 30.3277 45.7449C20.6502 49.8749 23.9577 48.5624 15.7502 51.6424C16.936 54.8994 18.7162 57.9079 21.0002 60.5149C27.6327 54.7224 24.9202 57.0324 33.0227 50.3299ZM44.5377 53.9874C42.8651 54.3464 41.1354 54.3464 39.4627 53.9874C37.8177 64.3824 38.4302 60.8649 36.8377 69.5449C40.2506 70.175 43.7499 70.175 47.1627 69.5449C45.5002 60.8474 46.1827 64.3649 44.5377 53.9874ZM53.6727 45.7449C53.1233 47.4584 52.2032 49.0298 50.9777 50.3474C59.0802 57.0324 56.3677 54.7224 63.0177 60.5149C65.3018 57.9079 67.082 54.8994 68.2677 51.6424C60.0427 48.5624 63.3502 49.8749 53.6727 45.7449ZM51.0477 33.7749C52.2698 35.0862 53.1739 36.661 53.6902 38.3774C63.4902 34.4924 60.1302 35.7524 68.4427 32.7949C67.315 29.5164 65.575 26.4819 63.3152 23.8524C56.5777 29.5224 59.3427 27.2649 51.0477 33.7749ZM39.4627 30.0124C41.1344 29.6448 42.866 29.6448 44.5377 30.0124C46.1827 19.6174 45.5702 23.1349 47.1627 14.4549C43.7499 13.8249 40.2506 13.8249 36.8377 14.4549C38.5002 23.1524 37.8177 19.6349 39.4627 30.0124ZM50.4352 39.6724C49.9783 38.0186 49.0452 36.5356 47.752 35.4079C46.4588 34.2802 44.8626 33.5576 43.162 33.33C41.4613 33.1024 39.7313 33.3798 38.1871 34.1277C36.6428 34.8757 35.3526 36.0611 34.4768 37.5366C33.6011 39.0121 33.1784 40.7125 33.2615 42.4263C33.3445 44.1401 33.9296 45.7916 34.944 47.1755C35.9584 48.5594 37.3572 49.6145 38.9665 50.2096C40.5758 50.8046 42.3246 50.9135 43.9952 50.5224C45.1425 50.2539 46.2237 49.7565 47.174 49.0599C48.1244 48.3633 48.9242 47.482 49.5256 46.4688C50.127 45.4555 50.5176 44.3313 50.6739 43.1634C50.8302 41.9956 50.749 40.8082 50.4352 39.6724ZM42.0002 47.2499C40.9619 47.2499 39.9468 46.942 39.0835 46.3652C38.2201 45.7883 37.5472 44.9683 37.1499 44.009C36.7525 43.0497 36.6485 41.9941 36.8511 40.9757C37.0537 39.9573 37.5537 39.0219 38.2879 38.2876C39.0221 37.5534 39.9576 37.0534 40.976 36.8508C41.9944 36.6482 43.05 36.7522 44.0093 37.1496C44.9686 37.5469 45.7886 38.2198 46.3654 39.0832C46.9423 39.9466 47.2502 40.9616 47.2502 41.9999C47.2502 43.3923 46.6971 44.7277 45.7125 45.7123C44.728 46.6968 43.3926 47.2499 42.0002 47.2499Z" fill="current"/>
<path d="M42 40.25C41.5359 40.25 41.0908 40.4344 40.7626 40.7626C40.4344 41.0908 40.25 41.5359 40.25 42C40.25 42.4641 40.4344 42.9092 40.7626 43.2374C41.0908 43.5656 41.5359 43.75 42 43.75C42.4641 43.75 42.9092 43.5656 43.2374 43.2374C43.5656 42.9092 43.75 42.4641 43.75 42C43.75 41.5359 43.5656 41.0908 43.2374 40.7626C42.9092 40.4344 42.4641 40.25 42 40.25Z" fill="current"/>
</svg>
