<svg width="84" height="84" viewBox="0 0 84 84" fill="none" xmlns="http://www.w3.org/2000/svg">
<g clip-path="url(#clip0_830_890)">
<path fill-rule="evenodd" clip-rule="evenodd" d="M52.4997 39.3579C52.4918 39.7075 52.5538 40.0551 52.6821 40.3804C52.8104 40.7056 53.0024 41.002 53.2468 41.2521C53.4912 41.5021 53.7831 41.7008 54.1053 41.8365C54.4276 41.9722 54.7737 42.0421 55.1234 42.0422C55.473 42.0423 55.8192 41.9726 56.1415 41.837C56.4638 41.7015 56.7558 41.5029 57.0004 41.253C57.2449 41.0031 57.437 40.7068 57.5655 40.3816C57.6939 40.0564 57.7561 39.7088 57.7484 39.3592C57.7332 38.6733 57.4502 38.0207 56.9598 37.5409C56.4694 37.0611 55.8107 36.7924 55.1247 36.7922C54.4386 36.7921 53.7798 37.0605 53.2892 37.54C52.7986 38.0195 52.5152 38.672 52.4997 39.3579Z" fill="transparent"/>
<path fill-rule="evenodd" clip-rule="evenodd" d="M42 61.6875C31.1443 61.6875 22.3125 52.8557 22.3125 42C22.3125 31.1443 31.1443 22.3125 42 22.3125C52.8557 22.3125 61.6875 31.1443 61.6875 42C61.6875 52.8557 52.8557 61.6875 42 61.6875ZM42 13.125C26.0531 13.125 13.125 26.0531 13.125 42C13.125 57.9469 26.0531 70.875 42 70.875C57.9469 70.875 70.875 57.9469 70.875 42C70.875 26.0531 57.9469 13.125 42 13.125Z" fill="transparent"/>
<path fill-rule="evenodd" clip-rule="evenodd" d="M49.875 51.1875C49.5254 51.1796 49.1778 51.2416 48.8525 51.3699C48.5273 51.4982 48.2309 51.6902 47.9808 51.9346C47.7308 52.179 47.5321 52.4709 47.3964 52.7931C47.2607 53.1154 47.1907 53.4615 47.1907 53.8112C47.1906 54.1608 47.2603 54.507 47.3959 54.8293C47.5314 55.1516 47.73 55.4436 47.9799 55.6882C48.2298 55.9327 48.5261 56.1248 48.8513 56.2533C49.1765 56.3817 49.5241 56.4439 49.8737 56.4362C50.5595 56.421 51.2122 56.138 51.692 55.6476C52.1717 55.1572 52.4405 54.4985 52.4407 53.8125C52.4408 53.1265 52.1724 52.4676 51.6929 51.977C51.2134 51.4864 50.5609 51.203 49.875 51.1875ZM42 31.5C42.6962 31.5 43.3639 31.2234 43.8562 30.7312C44.3484 30.2389 44.625 29.5712 44.625 28.875C44.625 28.1788 44.3484 27.5111 43.8562 27.0188C43.3639 26.5266 42.6962 26.25 42 26.25C41.3038 26.25 40.6361 26.5266 40.1438 27.0188C39.6516 27.5111 39.375 28.1788 39.375 28.875C39.375 29.5712 39.6516 30.2389 40.1438 30.7312C40.6361 31.2234 41.3038 31.5 42 31.5ZM34.125 51.1875C33.7754 51.1796 33.4278 51.2416 33.1025 51.3699C32.7773 51.4982 32.4809 51.6902 32.2308 51.9346C31.9808 52.179 31.7821 52.4709 31.6464 52.7931C31.5107 53.1154 31.4407 53.4615 31.4407 53.8112C31.4406 54.1608 31.5103 54.507 31.6459 54.8293C31.7814 55.1516 31.98 55.4436 32.2299 55.6882C32.4798 55.9327 32.7761 56.1248 33.1013 56.2533C33.4265 56.3817 33.7741 56.4439 34.1237 56.4362C34.8096 56.421 35.4622 56.138 35.942 55.6476C36.4218 55.1572 36.6905 54.4985 36.6907 53.8125C36.6908 53.1265 36.4224 52.4676 35.9429 51.977C35.4634 51.4864 34.8109 51.203 34.125 51.1875ZM28.875 36.7329C28.1788 36.7329 27.5111 37.0095 27.0188 37.5018C26.5266 37.9941 26.25 38.6617 26.25 39.3579C26.25 40.0541 26.5266 40.7218 27.0188 41.2141C27.5111 41.7064 28.1788 41.9829 28.875 41.9829C29.5712 41.9829 30.2389 41.7064 30.7312 41.2141C31.2234 40.7218 31.5 40.0541 31.5 39.3579C31.5 38.6617 31.2234 37.9941 30.7312 37.5018C30.2389 37.0095 29.5712 36.7329 28.875 36.7329Z" fill="transparent"/>
<mask id="mask0_830_890" style="mask-type:alpha" maskUnits="userSpaceOnUse" x="0" y="0" width="84" height="84">
<path d="M0.0786133 84V0.0524902H83.9999V84H0.0786133Z" fill="current"/>
</mask>
<g mask="url(#mask0_830_890)">
<path fill-rule="evenodd" clip-rule="evenodd" d="M42 35.4375C41.1381 35.4376 40.2847 35.6074 39.4884 35.9373C38.6922 36.2672 37.9687 36.7508 37.3593 37.3603C36.75 37.9698 36.2666 38.6933 35.9368 39.4897C35.6071 40.286 35.4374 41.1394 35.4375 42.0013C35.4376 42.8632 35.6074 43.7166 35.9373 44.5129C36.2672 45.3091 36.7508 46.0326 37.3603 46.642C37.9698 47.2514 38.6933 47.7347 39.4897 48.0645C40.286 48.3942 41.1394 48.5639 42.0013 48.5638C43.742 48.5636 45.4113 47.872 46.642 46.641C47.8727 45.4101 48.564 43.7407 48.5638 42C48.5636 40.2593 47.872 38.59 46.641 37.3593C45.4101 36.1286 43.7407 35.4373 42 35.4375Z" fill="transparent"/>
<path fill-rule="evenodd" clip-rule="evenodd" d="M42 70.875C26.0531 70.875 13.125 57.9469 13.125 42C13.125 26.0531 26.0531 13.125 42 13.125C57.9469 13.125 70.875 26.0531 70.875 42C70.875 57.9469 57.9469 70.875 42 70.875ZM42 0C18.8042 0 0 18.8042 0 42C0 65.1958 18.8042 84 42 84C65.1958 84 84 65.1958 84 42C84 18.8042 65.1958 0 42 0Z" fill="current"/>
<path fill-rule="evenodd" clip-rule="evenodd" d="M57.75 39.3579C57.7579 39.7075 57.6959 40.0551 57.5676 40.3804C57.4393 40.7057 57.2473 41.002 57.0029 41.2521C56.7585 41.5022 56.4666 41.7009 56.1444 41.8366C55.8221 41.9723 55.476 42.0422 55.1263 42.0423C54.7767 42.0424 54.4305 41.9726 54.1082 41.8371C53.7859 41.7015 53.4939 41.503 53.2493 41.253C53.0048 41.0031 52.8127 40.7068 52.6842 40.3816C52.5558 40.0564 52.4936 39.7088 52.5013 39.3593C52.5165 38.6734 52.7995 38.0207 53.2899 37.541C53.7803 37.0612 54.439 36.7925 55.125 36.7923C55.811 36.7921 56.4699 37.0605 56.9605 37.54C57.4511 38.0196 57.7345 38.6721 57.75 39.3579ZM49.875 56.4375C49.1788 56.4375 48.5111 56.1609 48.0188 55.6687C47.5266 55.1764 47.25 54.5087 47.25 53.8125C47.25 53.1163 47.5266 52.4486 48.0188 51.9563C48.5111 51.4641 49.1788 51.1875 49.875 51.1875C50.5712 51.1875 51.2389 51.4641 51.7312 51.9563C52.2234 52.4486 52.5 53.1163 52.5 53.8125C52.5 54.5087 52.2234 55.1764 51.7312 55.6687C51.2389 56.1609 50.5712 56.4375 49.875 56.4375ZM42 48.5625C40.2595 48.5625 38.5903 47.8711 37.3596 46.6404C36.1289 45.4097 35.4375 43.7405 35.4375 42C35.4375 40.2595 36.1289 38.5903 37.3596 37.3596C38.5903 36.1289 40.2595 35.4375 42 35.4375C43.7405 35.4375 45.4097 36.1289 46.6404 37.3596C47.8711 38.5903 48.5625 40.2595 48.5625 42C48.5625 43.7405 47.8711 45.4097 46.6404 46.6404C45.4097 47.8711 43.7405 48.5625 42 48.5625ZM34.125 56.4375C33.4288 56.4375 32.7611 56.1609 32.2688 55.6687C31.7766 55.1764 31.5 54.5087 31.5 53.8125C31.5 53.1163 31.7766 52.4486 32.2688 51.9563C32.7611 51.4641 33.4288 51.1875 34.125 51.1875C34.8212 51.1875 35.4889 51.4641 35.9812 51.9563C36.4734 52.4486 36.75 53.1163 36.75 53.8125C36.75 54.5087 36.4734 55.1764 35.9812 55.6687C35.4889 56.1609 34.8212 56.4375 34.125 56.4375ZM28.875 41.9829C28.5254 41.9908 28.1778 41.9288 27.8525 41.8005C27.5273 41.6722 27.2309 41.4803 26.9808 41.2359C26.7308 40.9915 26.5321 40.6996 26.3964 40.3773C26.2607 40.055 26.1907 39.7089 26.1907 39.3593C26.1906 39.0096 26.2603 38.6635 26.3959 38.3411C26.5314 38.0188 26.73 37.7268 26.9799 37.4823C27.2298 37.2377 27.5261 37.0456 27.8513 36.9172C28.1765 36.7887 28.5241 36.7265 28.8737 36.7343C29.5595 36.7494 30.2122 37.0325 30.692 37.5229C31.1718 38.0132 31.4405 38.6719 31.4407 39.358C31.4408 40.044 31.1724 40.7028 30.6929 41.1934C30.2134 41.684 29.5609 41.9674 28.875 41.9829ZM42 26.25C42.3496 26.2421 42.6972 26.3041 43.0225 26.4324C43.3477 26.5607 43.6441 26.7527 43.8942 26.9971C44.1442 27.2415 44.3429 27.5334 44.4786 27.8556C44.6143 28.1779 44.6843 28.524 44.6843 28.8737C44.6844 29.2233 44.6147 29.5695 44.4791 29.8918C44.3436 30.2141 44.145 30.5061 43.8951 30.7507C43.6452 30.9952 43.3489 31.1873 43.0237 31.3158C42.6985 31.4442 42.3509 31.5064 42.0013 31.4987C41.3155 31.4835 40.6628 31.2005 40.183 30.7101C39.7032 30.2197 39.4345 29.561 39.4343 28.875C39.4342 28.189 39.7026 27.5301 40.1821 27.0395C40.6616 26.5489 41.3141 26.2655 42 26.25ZM42 22.3125C31.1443 22.3125 22.3125 31.1443 22.3125 42C22.3125 52.8557 31.1443 61.6875 42 61.6875C52.8557 61.6875 61.6875 52.8557 61.6875 42C61.6875 31.1443 52.8557 22.3125 42 22.3125Z" fill="current"/>
</g>
</g>
<defs>
<clipPath id="clip0_830_890">
<rect width="84" height="84" fill="current"/>
</clipPath>
</defs>
</svg>
